<mxfile host="app.diagrams.net" modified="2024-02-28T13:32:17.248Z" agent="Mozilla/5.0 (Windows NT 10.0; Win64; x64; rv:121.0) Gecko/20100101 Firefox/121.0" version="23.1.7" etag="y6Kt_VXrhGup86ZlYfBO" type="github">
  <diagram name="Page-1" id="XfxgY6Lsshmj58tB0atF">
    <mxGraphModel>
      <root>
        <mxCell id="0" />
        <mxCell id="1" parent="0" />
      </root>
    </mxGraphModel>
  </diagram>
</mxfile>
